<?xml version="1.0" encoding="utf-8"?>
<!-- Generator: Adobe Illustrator 19.2.0, SVG Export Plug-In . SVG Version: 6.00 Build 0)  -->
<svg version="1.1" id="Layer_1" xmlns="http://www.w3.org/2000/svg" xmlns:xlink="http://www.w3.org/1999/xlink" x="0px" y="0px"
	 viewBox="0 0 100 100" style="enable-background:new 0 0 100 100;" xml:space="preserve">
<style type="text/css">
	.st0{fill:#B0915D;}
</style>
<g>
	<path class="st0" d="M100,24.5V0H90v24c0,8-5.6,13-12.5,13S65,32,65,24V0H55v24.5C55,38,65.1,47,77.5,47S100,38,100,24.5
		 M77.5,75.5L55,53v47h10V77l12.5,12.5L90,77v23h10V53L77.5,75.5z M20,100h25V90H30V55H20V100z M20,45h25V35H30V0H20V45z M0,100h10
		V0H0V100z"/>
</g>
</svg>
